<svg width="100%" height="100%" viewBox="0 0 214 199" fill="none" xmlns="http://www.w3.org/2000/svg">
<path d="M97.1124 116.81C97.2699 116.855 97.4349 116.915 97.6224 116.96L98.2149 117.065C98.6349 117.14 99.0924 117.238 99.6024 117.313L101.26 117.433C101.567 117.451 101.875 117.451 102.182 117.433H103.165C103.507 117.413 103.847 117.376 104.185 117.32L105.257 117.178C105.625 117.118 106.007 117.013 106.36 116.93L106.93 116.795C107.124 116.76 107.315 116.707 107.5 116.638C108.287 116.393 109.059 116.1 109.81 115.76C111.433 115.033 112.947 114.084 114.31 112.94L115.36 112.003C115.712 111.688 116.012 111.313 116.35 110.968C116.515 110.795 116.672 110.615 116.837 110.435C117.002 110.255 117.13 110.053 117.28 109.858C117.565 109.468 117.88 109.108 118.142 108.68L118.892 107.413L119.08 107.09L119.237 106.753L119.567 106.063L119.89 105.38C120.002 105.148 120.055 104.923 120.145 104.698L120.64 103.303C121.164 101.387 121.431 99.4092 121.435 97.4227C121.435 96.9352 121.382 96.4477 121.352 95.9602C121.352 95.7202 121.352 95.4802 121.292 95.2102C121.232 94.9402 121.21 94.7302 121.165 94.4977C121.075 94.0252 121.022 93.5452 120.895 93.0877C120.767 92.6302 120.64 92.1802 120.52 91.7302C119.985 90.0231 119.212 88.3997 118.225 86.9077C117.77 86.212 117.269 85.548 116.725 84.9202C116.607 84.7627 116.476 84.6147 116.335 84.4777L115.93 84.0577C115.66 83.7877 115.405 83.5027 115.135 83.2552L114.31 82.5502C114.057 82.3181 113.789 82.1026 113.507 81.9052L112.697 81.3502C112.457 81.1711 112.207 81.0058 111.947 80.8552C111.43 80.5702 110.942 80.3002 110.447 80.0602C109.952 79.8202 109.54 79.6777 109.142 79.5127L108.587 79.2802L108.085 79.1302L107.282 78.8977L106.615 78.7027L107.26 78.9727L108.01 79.2877L108.497 79.4902L109.022 79.7677C109.397 79.9627 109.81 80.1727 110.245 80.4127L111.602 81.3052C111.866 81.4654 112.117 81.646 112.352 81.8452L113.102 82.4377C113.365 82.6455 113.615 82.8684 113.852 83.1052L114.602 83.8552C114.85 84.1102 115.067 84.3952 115.315 84.6727L115.675 85.0927C115.803 85.2316 115.921 85.3795 116.027 85.5352C117.517 87.5125 118.635 89.7436 119.327 92.1202C119.81 93.8494 120.063 95.6349 120.077 97.4302C120.058 99.282 119.793 101.123 119.29 102.905L118.825 104.233C118.756 104.462 118.673 104.688 118.577 104.908L118.292 105.523L118.007 106.138L117.865 106.453L117.692 106.745L116.987 107.93C116.004 109.434 114.826 110.8 113.485 111.995L113.245 112.22L112.99 112.415L112.472 112.813C112.147 113.085 111.803 113.335 111.445 113.563L110.387 114.238C110.035 114.448 109.637 114.62 109.307 114.808C108.607 115.164 107.886 115.477 107.147 115.745C106.975 115.82 106.797 115.88 106.615 115.925L106.082 116.09C105.73 116.188 105.385 116.308 105.04 116.39L104.02 116.585C103.699 116.661 103.373 116.716 103.045 116.75L102.1 116.848C101.792 116.848 101.5 116.93 101.207 116.923H99.5799C99.0849 116.923 98.6199 116.84 98.1999 116.803L97.6074 116.75C97.4274 116.75 97.2549 116.69 97.0974 116.66L96.2799 116.518L95.5974 116.39L96.2574 116.585L97.1124 116.81Z" fill="rgba(255, 255, 255, 0.2)"/>
<path d="M120.648 114.642L119.935 115.227L119.313 115.752L118.735 116.142C118.038 116.607 117.648 116.892 117.648 116.892C117.648 116.892 118.068 116.675 118.81 116.262L119.418 115.917L120.093 115.445C120.34 115.28 120.595 115.1 120.843 114.905C120.985 114.813 121.118 114.707 121.24 114.59L121.645 114.237L122.493 113.487L123.318 112.595L123.745 112.122C123.888 111.957 124.008 111.777 124.143 111.605L124.945 110.525C125.457 109.735 125.914 108.911 126.31 108.057C126.721 107.174 127.074 106.264 127.368 105.335C127.621 104.395 127.817 103.441 127.953 102.477C128.074 101.545 128.136 100.605 128.14 99.6647C128.14 99.2072 128.08 98.7647 128.05 98.3222C128.05 98.1047 128.05 97.8872 127.998 97.6697C127.945 97.4522 127.923 97.2497 127.893 97.0472C127.818 96.6347 127.75 96.2297 127.683 95.8472C127.615 95.4647 127.473 95.0972 127.375 94.7522C127.323 94.5722 127.278 94.3997 127.225 94.2347C127.185 94.0709 127.132 93.9104 127.068 93.7547L126.708 92.8772L126.393 92.1272L126.07 91.5122C125.673 90.7622 125.433 90.3497 125.433 90.3497C125.433 90.3497 125.613 90.7997 125.943 91.5722C126.025 91.7672 126.123 91.9772 126.22 92.2097L126.468 92.9597L126.745 93.8372C126.85 94.1447 126.895 94.4897 126.985 94.8347C127.075 95.1797 127.143 95.5472 127.225 95.9222C127.308 96.2972 127.323 96.6722 127.368 97.0997C127.368 97.3022 127.42 97.5047 127.45 97.7147C127.48 97.9247 127.45 98.1347 127.45 98.3447C127.45 98.7697 127.465 99.2047 127.495 99.6497C127.466 100.561 127.386 101.47 127.255 102.372C127.005 104.237 126.472 106.053 125.673 107.757C125.294 108.584 124.871 109.391 124.405 110.172L123.655 111.245C123.535 111.417 123.423 111.597 123.295 111.762L122.898 112.235L122.148 113.15L121.398 113.9C121.135 114.177 120.903 114.44 120.648 114.642Z" fill="rgba(255, 255, 255, 0.2)"/>
<path d="M201.302 94.0701C200.469 94.0773 199.648 94.2829 198.91 94.6701L191.597 87.3501C189.649 73.6152 184.36 60.5684 176.192 49.3551L178.915 44.1051C179.938 44.1778 180.96 43.9492 181.855 43.4473C182.75 42.9455 183.478 42.1924 183.95 41.2813C184.421 40.3701 184.616 39.3408 184.509 38.3205C184.401 37.3001 183.998 36.3335 183.347 35.5401C183.141 35.2852 182.913 35.0492 182.665 34.8351C182.136 34.3874 181.524 34.0488 180.864 33.8388C180.204 33.6288 179.508 33.5515 178.818 33.6115C178.128 33.6715 177.456 33.8674 176.842 34.1881C176.228 34.5088 175.684 34.9479 175.24 35.4801L175.202 35.5401H163.6C151.14 24.5005 135.711 17.365 119.23 15.0201L111.91 7.70758C112.301 6.97064 112.507 6.14947 112.51 5.31508C112.503 4.52489 112.319 3.74637 111.969 3.03757C111.62 2.32877 111.115 1.70798 110.492 1.22148C109.87 0.734983 109.145 0.395331 108.373 0.22785C107.601 0.0603695 106.8 0.0693814 106.032 0.254213C105.264 0.439045 104.547 0.794929 103.936 1.29533C103.324 1.79573 102.833 2.42773 102.5 3.14422C102.167 3.86071 101.999 4.64319 102.011 5.43333C102.022 6.22347 102.211 7.00087 102.565 7.70758L95.2449 15.0201C78.7698 17.3528 63.3432 24.4753 50.8824 35.5026H39.2874C39.0841 35.2478 38.8582 35.0118 38.6124 34.7976C38.0835 34.3487 37.4708 34.0092 36.8099 33.7985C36.1489 33.5878 35.4528 33.5103 34.7617 33.5702C34.0706 33.6302 33.3982 33.8266 32.7834 34.1479C32.1686 34.4693 31.6236 34.9093 31.1799 35.4426C31.1691 35.4636 31.1566 35.4837 31.1424 35.5026C30.4902 36.2954 30.0846 37.262 29.976 38.2829C29.8674 39.3037 30.0605 40.334 30.5314 41.2463C31.0023 42.1585 31.7304 42.9127 32.6254 43.4155C33.5205 43.9183 34.5434 44.1476 35.5674 44.0751L38.2899 49.3251C30.1155 60.5464 24.8229 73.604 22.8774 87.3501L15.5649 94.6701C14.8582 94.3165 14.0808 94.1271 13.2907 94.1158C12.5006 94.1046 11.7181 94.2718 11.0016 94.6051C10.2851 94.9384 9.65309 95.4292 9.15269 96.0408C8.65229 96.6524 8.2964 97.369 8.11157 98.1373C7.92674 98.9056 7.91773 99.7057 8.08521 100.478C8.25269 101.25 8.59234 101.975 9.07884 102.597C9.56534 103.22 10.1861 103.725 10.8949 104.074C11.6037 104.424 12.3822 104.609 13.1724 104.615C14.0068 104.612 14.828 104.406 15.5649 104.015L22.8774 111.335C24.8254 125.07 30.1152 138.117 38.2824 149.33L34.5324 156.53C33.6897 156.647 32.8879 156.966 32.1961 157.461C31.5042 157.956 30.9431 158.612 30.5609 159.372C30.1787 160.132 29.9869 160.974 30.0021 161.824C30.0173 162.675 30.239 163.509 30.648 164.255C31.0571 165.001 31.6413 165.636 32.3503 166.106C33.0594 166.576 33.8721 166.867 34.7184 166.954C35.5648 167.04 36.4194 166.919 37.2088 166.602C37.9982 166.285 38.6987 165.781 39.2499 165.133C39.7268 164.564 40.0748 163.899 40.2699 163.183H50.8749C63.333 174.225 78.7629 181.361 95.2449 183.703L102.565 191.015C102.211 191.722 102.022 192.499 102.011 193.289C101.999 194.08 102.167 194.862 102.5 195.579C102.833 196.295 103.324 196.927 103.936 197.427C104.547 197.928 105.264 198.284 106.032 198.469C106.8 198.653 107.601 198.662 108.373 198.495C109.145 198.327 109.87 197.988 110.492 197.501C111.115 197.015 111.62 196.394 111.969 195.685C112.319 194.976 112.503 194.198 112.51 193.408C112.506 192.573 112.3 191.752 111.91 191.015L119.23 183.703C135.712 181.361 151.142 174.225 163.6 163.183H175.187C175.391 163.439 175.62 163.675 175.87 163.888C176.399 164.335 177.011 164.674 177.671 164.884C178.331 165.094 179.026 165.171 179.717 165.111C180.407 165.051 181.078 164.855 181.693 164.535C182.307 164.214 182.851 163.775 183.295 163.243L183.332 163.183C183.983 162.389 184.386 161.423 184.494 160.402C184.601 159.382 184.406 158.353 183.935 157.441C183.463 156.53 182.735 155.777 181.84 155.275C180.945 154.774 179.923 154.545 178.9 154.618L176.177 149.368C184.345 138.154 189.634 125.108 191.582 111.373L198.895 104.053C199.632 104.443 200.453 104.649 201.287 104.653C202.686 104.653 204.027 104.097 205.016 103.108C206.004 102.12 206.56 100.778 206.56 99.3801C206.56 97.9817 206.004 96.6407 205.016 95.6519C204.027 94.6631 202.686 94.1076 201.287 94.1076L201.302 94.0701ZM22.3599 106.738L17.6724 102.058C18.1773 101.243 18.4448 100.304 18.4448 99.3463C18.4448 98.3883 18.1773 97.4493 17.6724 96.6351L22.3599 91.9476C22.1499 94.3851 22.0224 96.8526 22.0224 99.3426C22.0224 101.833 22.1499 104.3 22.3599 106.738ZM174.017 38.3826C173.94 39.2265 174.068 40.0766 174.391 40.8602C174.713 41.6438 175.221 42.3377 175.87 42.8826C175.967 42.9651 176.08 43.0251 176.185 43.1001L174.265 46.8501C171.931 43.8784 169.406 41.0624 166.705 38.4201L174.017 38.3826ZM104.5 9.77758C105.314 10.2824 106.253 10.5499 107.211 10.5499C108.169 10.5499 109.108 10.2824 109.922 9.77758L114.602 14.4651C112.165 14.2551 109.705 14.1276 107.207 14.1276C104.71 14.1276 102.25 14.2551 99.8124 14.4651L104.5 9.77758ZM39.2499 42.2301C40.1454 41.1574 40.5819 39.775 40.4649 38.3826H47.7624C45.0645 41.0233 42.544 43.8394 40.2174 46.8126L38.2974 43.0626C38.6442 42.8205 38.9636 42.5414 39.2499 42.2301ZM40.2849 160.303C39.9981 159.289 39.4127 158.384 38.6049 157.708C38.2799 157.439 37.922 157.212 37.5399 157.033L40.2099 151.88C42.539 154.851 45.062 157.665 47.7624 160.303H40.2849ZM109.945 188.908C109.131 188.403 108.192 188.135 107.234 188.135C106.276 188.135 105.337 188.403 104.522 188.908L99.8424 184.25C102.28 184.46 104.747 184.595 107.237 184.595C109.727 184.595 112.195 184.46 114.632 184.25L109.945 188.908ZM166.345 62.1051L142.63 38.3826H151.075C158.079 43.4446 164.167 49.6667 169.075 56.7801L166.345 62.1051ZM170.912 59.5476C173.691 63.9677 176.001 68.6656 177.805 73.5651L168.49 64.2501L170.912 59.5476ZM170.792 101.135C166.02 105.05 160.829 108.423 155.312 111.193L155.935 110.705C157.572 109.407 159.13 108.012 160.6 106.528C161.549 105.575 162.448 104.574 163.292 103.528C163.87 102.778 164.155 102.41 164.155 102.41C164.155 102.41 163.802 102.755 163.12 103.37C162.437 103.985 161.387 104.825 160.037 105.868C158.687 106.91 156.985 108.08 154.982 109.34C153.977 109.963 152.92 110.638 151.742 111.245C150.565 111.853 149.387 112.58 148.067 113.188L146.087 114.155C145.397 114.47 144.685 114.748 143.972 115.055L141.797 116L139.502 116.833L137.147 117.68L134.68 118.43L132.16 119.18L129.565 119.788L126.917 120.395C126.025 120.598 125.11 120.695 124.202 120.853L122.702 121.093C121.532 121.243 120.34 121.378 119.132 121.498C123.125 119.351 126.462 116.164 128.79 112.273C131.117 108.383 132.348 103.936 132.352 99.4025C132.356 94.8693 131.133 90.4196 128.812 86.5256C126.491 82.6316 123.159 79.4385 119.17 77.2851C122.867 77.6526 126.362 78.1851 129.67 78.8376L132.167 79.4151L134.687 80.1651L137.155 80.9151L139.51 81.7701L141.805 82.6026L143.987 83.5326C144.737 83.8401 145.412 84.1176 146.102 84.4251L148.082 85.4001C149.402 86.0076 150.602 86.6976 151.757 87.3426C152.912 87.9876 154.007 88.6251 154.997 89.2476C157 90.5001 158.687 91.6926 160.052 92.7201C161.417 93.7476 162.445 94.6101 163.135 95.2176C163.825 95.8251 164.17 96.1776 164.17 96.1776C164.17 96.1776 163.885 95.7801 163.307 95.0601C162.461 94.0155 161.562 93.0142 160.615 92.0601C159.145 90.5783 157.587 89.1858 155.95 87.8901C157.247 88.5651 158.485 89.2326 159.617 89.8851C163.557 92.151 167.3 94.7425 170.807 97.6326L136.622 99.4251L170.792 101.135ZM43.5924 97.6176C48.2098 93.8188 53.2239 90.5298 58.5474 87.8076C56.903 89.1079 55.3401 90.508 53.8674 92.0001C52.92 92.9519 52.0237 93.9533 51.1824 95.0001C50.5974 95.7501 50.3199 96.1176 50.3199 96.1176C50.3199 96.1176 50.6649 95.7726 51.3474 95.1576C52.0299 94.5426 53.0799 93.7026 54.4374 92.6601C55.7949 91.6176 57.4899 90.4476 59.4924 89.1876C60.4974 88.5726 61.5474 87.8976 62.7249 87.2826C63.9024 86.6676 65.0874 85.9551 66.3999 85.3476L68.3874 84.3726C69.0699 84.0651 69.7899 83.7801 70.5024 83.4801L72.6774 82.5426L74.9799 81.7101L77.3349 80.8626L79.8024 80.1126L82.3149 79.3626L84.9174 78.7551L85.7724 78.5601C88.8074 77.9901 91.9999 77.5376 95.3499 77.2026C91.35 79.3478 88.006 82.5368 85.6736 86.4306C83.3413 90.3244 82.1076 94.7775 82.1037 99.3164C82.0999 103.855 83.326 108.31 85.6518 112.208C87.9776 116.106 91.3161 119.301 95.3124 121.453C93.9174 121.31 92.5524 121.153 91.2099 120.965L90.2799 120.823C89.3649 120.665 88.4499 120.56 87.5649 120.365L84.9174 119.758L82.3149 119.15L79.8024 118.4L77.3349 117.688L74.9799 116.833L72.6774 116L70.5024 115.07C69.7524 114.763 69.0699 114.485 68.3874 114.178L66.3999 113.203C65.0874 112.595 63.8874 111.905 62.7249 111.268C61.5624 110.63 60.4749 109.978 59.4924 109.355C57.4899 108.103 55.7949 106.91 54.4374 105.883C53.0799 104.855 52.0374 104 51.3474 103.393C50.6574 102.785 50.3199 102.433 50.3199 102.433C50.3199 102.433 50.5974 102.83 51.1824 103.55C52.0237 104.597 52.92 105.598 53.8674 106.55C55.3378 108.032 56.8956 109.424 58.5324 110.72L59.1399 111.2C57.6399 110.45 56.1924 109.655 54.8799 108.898C50.9149 106.617 47.1513 104.002 43.6299 101.083L76.4874 99.3576L43.5924 97.6176ZM89.9724 87.1626C89.972 86.238 90.2342 85.3322 90.7284 84.5507C91.2226 83.7692 91.9286 83.1441 92.7642 82.7482C93.5998 82.3522 94.5306 82.2017 95.4484 82.3141C96.3662 82.4265 97.2332 82.7972 97.9486 83.3831C98.6639 83.9689 99.1982 84.7459 99.4892 85.6236C99.7803 86.5012 99.8161 87.4435 99.5926 88.3407C99.3691 89.2379 98.8954 90.0532 98.2266 90.6918C97.5579 91.3303 96.7215 91.7658 95.8149 91.9476C95.8987 92.2225 95.9441 92.5077 95.9499 92.7951C95.952 93.3263 95.8167 93.8491 95.5571 94.3127C95.2976 94.7762 94.9227 95.1648 94.4688 95.4408C94.0148 95.7168 93.4973 95.8708 92.9663 95.8878C92.4353 95.9048 91.909 95.7844 91.4383 95.538C90.9676 95.2917 90.5685 94.9279 90.2798 94.482C89.9911 94.036 89.8226 93.523 89.7906 92.9927C89.7585 92.4624 89.8641 91.9329 90.097 91.4554C90.3299 90.9779 90.6823 90.5688 91.1199 90.2676C90.3842 89.3997 89.9779 88.3003 89.9724 87.1626ZM108.722 113.563C112.274 111.616 115.099 108.572 116.776 104.886C118.453 101.2 118.892 97.0702 118.027 93.1141C117.161 89.1581 115.039 85.5884 111.976 82.9393C108.913 80.2901 105.074 78.7038 101.035 78.4176C104.807 77.2782 108.818 77.1796 112.642 78.1323C116.466 79.0851 119.961 81.0537 122.758 83.8299C125.555 86.6061 127.549 90.0867 128.53 93.9035C129.511 97.7202 129.443 101.731 128.331 105.512C127.22 109.293 125.107 112.703 122.217 115.382C119.326 118.06 115.765 119.908 111.911 120.729C108.057 121.55 104.052 121.314 100.321 120.046C96.5898 118.778 93.2707 116.525 90.7149 113.525C93.4676 115.035 96.5554 115.83 99.6951 115.837C102.835 115.843 105.926 115.061 108.685 113.563H108.722ZM107.275 70.8801C98.3178 70.8513 89.3853 71.8197 80.6424 73.7676L98.9424 38.3826H115.615L133.907 73.7676C125.152 71.817 116.207 70.8485 107.237 70.8801H107.275ZM76.9299 74.6751C70.4719 76.3549 64.1924 78.6582 58.1799 81.5526L49.5174 64.7976L75.9249 38.3826H95.6574L76.9299 74.6751ZM76.9299 124.01L95.6799 160.303H75.9249L49.5174 133.895L58.1799 117.14C64.1807 120.03 70.4475 122.33 76.8924 124.01H76.9299ZM80.6799 124.918C98.2214 128.765 116.388 128.765 133.93 124.918L115.637 160.303H98.8974L80.6799 124.918ZM137.68 124.01C144.122 122.33 150.387 120.03 156.385 117.14L165.055 133.895L138.55 160.303H118.817L137.68 124.01ZM137.68 74.6751L118.93 38.3826H138.55L164.965 64.7976L156.295 81.5526C150.297 78.6605 144.033 76.3572 137.59 74.6751H137.68ZM139.75 35.5026L133 28.7526C137.808 30.5267 142.422 32.7885 146.77 35.5026H139.75ZM135.677 35.5026H117.332L111.565 24.3501C116.802 24.6466 121.994 25.4963 127.052 26.8851L135.677 35.5026ZM114.092 35.5026H100.39L106.217 24.2526C106.555 24.2526 106.892 24.2526 107.237 24.2526C107.582 24.2526 107.92 24.2526 108.265 24.2526L114.092 35.5026ZM97.1574 35.5026H78.8049L87.4224 26.8851C92.4835 25.4957 97.6774 24.646 102.917 24.3501L97.1574 35.5026ZM74.7399 35.5026H67.6974C72.0424 32.7885 76.6539 30.5266 81.4599 28.7526L74.7399 35.5026ZM71.8599 38.3826L48.1224 62.1051L45.3699 56.7501C50.2765 49.6357 56.3644 43.4134 63.3699 38.3526L71.8599 38.3826ZM45.9999 64.2501L36.6624 73.5651C38.4694 68.667 40.7792 63.9694 43.5549 59.5476L45.9999 64.2501ZM47.3874 66.9426L55.6374 82.8501C48.245 86.5983 41.4569 91.4347 35.4999 97.1976L35.2224 97.4751C34.0599 98.6451 33.4899 99.3426 33.4899 99.3426C33.4899 99.3426 34.0599 100.04 35.2224 101.21L35.4999 101.488C41.445 107.25 48.2203 112.089 55.5999 115.843L47.3724 131.75L34.7499 119.158C31.1901 106.187 31.1901 92.4978 34.7499 79.5276L47.3874 66.9426ZM45.9999 134.443L43.5699 139.138C40.7913 134.717 38.4813 130.02 36.6774 125.12L45.9999 134.443ZM48.1374 136.58L71.8599 160.303H63.3999C56.3954 155.241 50.3078 149.018 45.3999 141.905L48.1374 136.58ZM74.7474 163.183L81.4974 169.933C76.6877 168.162 72.0734 165.9 67.7274 163.183H74.7474ZM78.8199 163.183H97.1499L102.917 174.343C97.6776 174.041 92.484 173.188 87.4224 171.8L78.8199 163.183ZM100.405 163.183H114.1L108.28 174.433C107.935 174.433 107.597 174.433 107.252 174.433C106.907 174.433 106.57 174.433 106.232 174.433L100.405 163.183ZM111.572 174.343L117.347 163.183H135.685L127.052 171.8C121.991 173.188 116.797 174.041 111.557 174.343H111.572ZM133.03 169.918L139.78 163.168H146.815C142.455 165.887 137.825 168.149 133 169.918H133.03ZM151.09 160.303H142.63L166.352 136.58L169.105 141.905C164.19 149.023 158.092 155.245 151.075 160.303H151.09ZM175.225 156.5C174.778 157.028 174.44 157.639 174.231 158.298C174.021 158.957 173.943 159.651 174.002 160.34H166.705C169.402 157.688 171.922 154.862 174.25 151.88L176.17 155.593C175.816 155.852 175.499 156.157 175.225 156.5ZM170.92 139.175L168.49 134.48L177.812 125.158C176.006 130.044 173.696 134.729 170.92 139.138V139.175ZM179.695 119.195L167.102 131.75L158.852 115.835C173.785 108.05 180.962 99.3351 180.962 99.3351C180.962 99.3351 173.785 90.6201 158.852 82.8351L167.102 66.9276L179.695 79.5201C183.265 92.4889 183.265 106.181 179.695 119.15V119.195ZM187.075 95.1501C187.022 94.4601 186.962 93.6951 186.895 92.8476C186.851 91.9234 186.741 91.0035 186.565 90.0951C186.212 88.1301 185.815 85.8726 185.365 83.3451C184.66 80.8776 183.97 78.0951 183.032 75.1776L181.277 70.6776C180.97 69.9276 180.685 69.1026 180.34 68.3151C179.995 67.5276 179.552 66.7626 179.155 65.9676C172.477 51.9293 161.799 40.1782 148.462 32.1914C135.125 24.2046 119.724 20.3385 104.196 21.0791C88.6684 21.8197 73.7058 27.1339 61.1894 36.3537C48.673 45.5735 39.1613 58.2875 33.8499 72.8976C33.3999 74.2326 32.7999 75.5226 32.4624 76.8876C32.1249 78.2526 31.7124 79.6176 31.3974 80.9676C30.5499 83.6751 30.3024 86.4051 29.8224 89.1051L29.4999 91.1376C29.4399 91.8351 29.4174 92.5476 29.3724 93.2526C29.2899 94.6626 29.2074 96.0726 29.1324 97.4751L29.0724 98.5251V99.0501V99.3126C29.0711 99.3351 29.0711 99.3576 29.0724 99.3801V99.5001L29.1624 101.548C29.2224 102.905 29.2824 104.263 29.3424 105.605C30.3904 119.488 35.0531 132.856 42.8672 144.379C50.6813 155.902 61.3747 165.18 73.8849 171.29L76.2324 172.483C77.0199 172.82 77.8149 173.113 78.5874 173.42L83.0874 175.168C86.0274 176.105 88.7874 176.795 91.2549 177.508L98.0049 178.7C98.9132 178.876 99.8332 178.987 100.757 179.03L103.067 179.21L107.297 179.54L103.06 179.443L100.742 179.39C99.8142 179.4 98.8866 179.34 97.9674 179.21L90.9999 178.295C88.4799 177.68 85.6599 177.103 82.6374 176.27L78.0099 174.68C77.2074 174.395 76.3824 174.14 75.5649 173.825L73.1274 172.715C65.6318 169.48 58.7156 165.042 52.6524 159.575C45.3667 153.148 39.2864 145.473 34.6974 136.91C29.5398 127.304 26.4101 116.741 25.5024 105.875C25.4199 104.465 25.3374 103.048 25.2624 101.623L25.1424 99.5001V98.8776V98.3526L25.2249 97.2501L25.4049 93.0276C25.4424 92.3226 25.4574 91.6176 25.5174 90.9051L25.8249 88.7151C26.2824 85.8051 26.5749 82.8051 27.3924 79.9776C27.7524 78.5526 28.1424 77.1126 28.4874 75.6801C28.8324 74.2476 29.4549 72.8676 29.9274 71.4576C33.9404 60.0412 40.4675 49.6725 49.0262 41.1176C57.585 32.5627 67.9567 26.0404 79.3749 22.0326C90.3721 18.1095 102.085 16.5978 113.717 17.6001C124.603 18.5003 135.188 21.6302 144.812 26.7951C153.381 31.3861 161.063 37.466 167.5 44.7501C172.972 50.823 177.411 57.7525 180.64 65.2626C181.015 66.0876 181.39 66.8976 181.75 67.7001C182.11 68.5026 182.327 69.3426 182.612 70.1376C183.157 71.7426 183.685 73.2876 184.195 74.7726C185.027 77.7726 185.612 80.6151 186.22 83.1351C186.55 85.7076 186.85 88.0026 187.105 90.0051C187.235 90.9242 187.295 91.8519 187.285 92.7801C187.285 93.6351 187.322 94.4076 187.337 95.1051C187.397 97.8651 187.435 99.3426 187.435 99.3426C187.435 99.3426 187.292 97.8726 187.075 95.1126V95.1501ZM196.825 102.095L192.137 106.775C192.347 104.338 192.482 101.878 192.482 99.3801C192.482 96.8826 192.347 94.4226 192.137 91.9851L196.825 96.6726C196.32 97.4868 196.053 98.4258 196.053 99.3839C196.053 100.342 196.32 101.281 196.825 102.095Z" fill="rgba(255, 255, 255, 0.2)"/>
<path d="M211.367 96.7098C210.844 96.7084 210.333 96.8621 209.898 97.1516C209.462 97.4412 209.123 97.8534 208.922 98.3361C208.721 98.8188 208.668 99.3502 208.77 99.863C208.872 100.376 209.123 100.847 209.493 101.217C209.863 101.586 210.334 101.838 210.846 101.939C211.359 102.041 211.891 101.988 212.373 101.787C212.856 101.587 213.268 101.247 213.558 100.812C213.847 100.377 214.001 99.8651 214 99.3424C214 98.6442 213.722 97.9746 213.229 97.4809C212.735 96.9872 212.065 96.7098 211.367 96.7098Z" fill="rgba(255, 255, 255, 0.2)"/>
<path d="M3.11471 96.7098C2.59193 96.7084 2.08049 96.8621 1.64519 97.1516C1.2099 97.4412 0.870363 97.8534 0.669619 98.3361C0.468874 98.8188 0.415962 99.3502 0.517588 99.863C0.619213 100.376 0.870801 100.847 1.24046 101.217C1.61012 101.586 2.08121 101.838 2.59402 101.939C3.10683 102.041 3.63826 101.988 4.12097 101.787C4.60367 101.587 5.0159 101.247 5.30542 100.812C5.59493 100.377 5.74869 99.8651 5.74721 99.3424C5.74523 98.6448 5.46725 97.9763 4.97398 97.4831C4.48072 96.9898 3.81229 96.7118 3.11471 96.7098Z" fill="rgba(255, 255, 255, 0.2)"/>
<path d="M102.107 144.815C103.316 145.83 104.798 146.463 106.366 146.635C107.935 146.808 109.519 146.511 110.919 145.783C112.319 145.056 113.472 143.929 114.232 142.546C114.992 141.163 115.325 139.586 115.188 138.014C115.052 136.442 114.453 134.946 113.466 133.714C112.48 132.483 111.151 131.571 109.646 131.095C108.142 130.619 106.53 130.6 105.015 131.039C103.499 131.479 102.148 132.358 101.132 133.565C100.454 134.366 99.9414 135.294 99.6233 136.294C99.3051 137.294 99.188 138.347 99.2786 139.393C99.3692 140.439 99.6658 141.456 100.151 142.387C100.637 143.317 101.302 144.143 102.107 144.815ZM103.337 135.433C103.986 134.662 104.848 134.101 105.815 133.82C106.782 133.539 107.811 133.551 108.771 133.855C109.731 134.159 110.579 134.74 111.209 135.526C111.839 136.312 112.221 137.267 112.308 138.27C112.395 139.274 112.183 140.28 111.698 141.163C111.213 142.045 110.477 142.764 109.584 143.229C108.69 143.693 107.679 143.882 106.678 143.772C105.677 143.662 104.731 143.258 103.96 142.61C103.448 142.18 103.025 141.653 102.716 141.059C102.408 140.466 102.219 139.817 102.161 139.15C102.104 138.484 102.178 137.812 102.379 137.175C102.581 136.537 102.907 135.945 103.337 135.433Z" fill="rgba(255, 255, 255, 0.2)"/>
<path d="M104.185 151.04C103.677 151.644 103.359 152.385 103.272 153.17C103.185 153.954 103.333 154.747 103.697 155.448C104.061 156.148 104.624 156.725 105.316 157.106C106.008 157.486 106.797 157.652 107.583 157.584C108.369 157.516 109.118 157.216 109.734 156.722C110.35 156.228 110.805 155.563 111.043 154.81C111.281 154.057 111.29 153.251 111.069 152.493C110.848 151.735 110.407 151.06 109.803 150.553C109.402 150.215 108.939 149.96 108.44 149.802C107.94 149.644 107.415 149.586 106.893 149.631C106.371 149.676 105.863 149.824 105.399 150.066C104.934 150.308 104.522 150.639 104.185 151.04Z" fill="rgba(255, 255, 255, 0.2)"/>
<path d="M107.238 52.0025C105.421 52.0008 103.658 52.619 102.24 53.7549C100.823 54.8909 99.8349 56.4766 99.4405 58.25C99.0461 60.0233 99.2685 61.8782 100.071 63.508C100.874 65.1378 102.208 66.4449 103.855 67.2134C105.501 67.9819 107.36 68.1657 109.125 67.7344C110.889 67.3031 112.454 66.2826 113.56 64.8415C114.666 63.4004 115.248 61.625 115.208 59.8088C115.169 57.9925 114.511 56.2441 113.343 54.8525C112.595 53.9598 111.662 53.2419 110.607 52.7495C109.552 52.2571 108.402 52.0021 107.238 52.0025ZM110.5 63.8825C109.728 64.5327 108.781 64.9392 107.778 65.0506C106.775 65.1621 105.761 64.9735 104.866 64.5087C103.97 64.0439 103.232 63.3238 102.746 62.4395C102.26 61.5552 102.047 60.5466 102.134 59.5412C102.221 58.5358 102.604 57.5788 103.236 56.7915C103.867 56.0042 104.718 55.4218 105.68 55.1182C106.643 54.8145 107.673 54.8032 108.642 55.0857C109.611 55.3682 110.474 55.9317 111.123 56.705C111.987 57.7416 112.406 59.0776 112.289 60.422C112.173 61.7663 111.53 63.0102 110.5 63.8825Z" fill="rgba(255, 255, 255, 0.2)"/>
<path d="M109.803 48.1327C110.407 47.6253 110.848 46.9499 111.069 46.192C111.29 45.4341 111.281 44.6277 111.043 43.875C110.805 43.1222 110.35 42.4568 109.734 41.963C109.118 41.4692 108.369 41.1693 107.583 41.101C106.797 41.0328 106.008 41.1993 105.316 41.5796C104.624 41.9599 104.061 42.5369 103.697 43.2375C103.333 43.938 103.185 44.7308 103.272 45.5154C103.359 46.3 103.677 47.0412 104.185 47.6452C104.522 48.0465 104.934 48.3776 105.399 48.6194C105.863 48.8612 106.371 49.0089 106.893 49.0542C107.415 49.0995 107.94 49.0414 108.44 48.8833C108.939 48.7251 109.402 48.4701 109.803 48.1327Z" fill="rgba(255, 255, 255, 0.2)"/>
</svg>
